<svg width="35" height="34" viewBox="0 0 35 34" fill="none" xmlns="http://www.w3.org/2000/svg">
<path d="M9.87833 15.2858C11.9183 19.295 15.205 22.5675 19.2142 24.6217L22.3308 21.505C22.7133 21.1225 23.28 20.995 23.7758 21.165C25.3625 21.6892 27.0767 21.9725 28.8333 21.9725C29.6125 21.9725 30.25 22.61 30.25 23.3892V28.3333C30.25 29.1125 29.6125 29.75 28.8333 29.75C15.5308 29.75 4.75 18.9692 4.75 5.66667C4.75 4.8875 5.3875 4.25 6.16667 4.25H11.125C11.9042 4.25 12.5417 4.8875 12.5417 5.66667C12.5417 7.4375 12.825 9.1375 13.3492 10.7242C13.505 11.22 13.3917 11.7725 12.995 12.1692L9.87833 15.2858Z" fill="white"/>
</svg>
